# This file uses centimeters as units for non-parametric coordinates.

mtllib disk.mtl
g default
v -0.156434 0.000000 0.987688
v 0.156434 0.000000 0.987688
v 0.453991 0.000000 0.891007
v 0.707107 0.000000 0.707107
v 0.891007 0.000000 0.453990
v 0.987688 0.000000 0.156434
v 0.987688 0.000000 -0.156435
v 0.891007 0.000000 -0.453990
v 0.707107 0.000000 -0.707107
v 0.453990 0.000000 -0.891007
v 0.156434 0.000000 -0.987688
v -0.156434 0.000000 -0.987688
v -0.453991 0.000000 -0.891006
v -0.707107 0.000000 -0.707107
v -0.891006 0.000000 -0.453991
v -0.987688 0.000000 -0.156434
v -0.987688 0.000000 0.156435
v -0.891006 0.000000 0.453991
v -0.707106 0.000000 0.707107
v -0.453991 0.000000 0.891006
v -0.000000 0.000000 0.000000
vt 0.420808 0.000000
vt 0.579192 0.000000
vt 0.729825 0.048943
vt 0.857960 0.142040
vt 0.951056 0.270175
vt 1.000000 0.420808
vt 1.000000 0.579192
vt 0.951056 0.729825
vt 0.857960 0.857960
vt 0.729825 0.951057
vt 0.579192 1.000000
vt 0.420808 1.000000
vt 0.270175 0.951056
vt 0.142039 0.857960
vt 0.048944 0.729825
vt 0.000000 0.579192
vt 0.000000 0.420808
vt 0.048944 0.270175
vt 0.142040 0.142039
vt 0.270175 0.048944
vt 0.500000 0.500000
vn 0.000000 1.000000 0.000000
vn 0.000000 1.000000 0.000000
vn 0.000000 1.000000 0.000000
vn 0.000000 1.000000 0.000000
vn 0.000000 1.000000 0.000000
vn 0.000000 1.000000 0.000000
vn 0.000000 1.000000 0.000000
vn 0.000000 1.000000 0.000000
vn 0.000000 1.000000 0.000000
vn 0.000000 1.000000 0.000000
vn 0.000000 1.000000 0.000000
vn 0.000000 1.000000 0.000000
vn 0.000000 1.000000 0.000000
vn 0.000000 1.000000 0.000000
vn 0.000000 1.000000 0.000000
vn 0.000000 1.000000 0.000000
vn 0.000000 1.000000 0.000000
vn 0.000000 1.000000 0.000000
vn 0.000000 1.000000 0.000000
vn 0.000000 1.000000 0.000000
vn 0.000000 1.000000 0.000000
s 1
g pDisc1
usemtl initialShadingGroup
f 1/1/1 2/2/2 21/21/3
f 2/2/2 3/3/4 21/21/3
f 3/3/4 4/4/5 21/21/3
f 4/4/5 5/5/6 21/21/3
f 5/5/6 6/6/7 21/21/3
f 6/6/7 7/7/8 21/21/3
f 7/7/8 8/8/9 21/21/3
f 8/8/9 9/9/10 21/21/3
f 9/9/10 10/10/11 21/21/3
f 10/10/11 11/11/12 21/21/3
f 11/11/12 12/12/13 21/21/3
f 12/12/13 13/13/14 21/21/3
f 13/13/14 14/14/15 21/21/3
f 14/14/15 15/15/16 21/21/3
f 15/15/16 16/16/17 21/21/3
f 16/16/17 17/17/18 21/21/3
f 17/17/18 18/18/19 21/21/3
f 18/18/19 19/19/20 21/21/3
f 19/19/20 20/20/21 21/21/3
f 20/20/21 1/1/1 21/21/3
